<?xml version="1.0" encoding="UTF-8"?>
<svg version="1.1" xmlns="http://www.w3.org/2000/svg" width="128" height="128">
<path d="M0 0 C1.3122908 -0.01268921 1.3122908 -0.01268921 2.65109253 -0.02563477 C4.0865593 -0.01652573 4.0865593 -0.01652573 5.55102539 -0.00723267 C7.0660112 -0.0151181 7.0660112 -0.0151181 8.61160278 -0.02316284 C11.95745204 -0.0363903 15.30282736 -0.02761483 18.64868164 -0.01748657 C20.96891369 -0.01950651 23.28914513 -0.02241728 25.609375 -0.02618408 C30.47507769 -0.03061117 35.3406153 -0.02416388 40.20629883 -0.01016235 C46.45115803 0.00692957 52.69563046 -0.00290953 58.94047546 -0.02087975 C63.73249235 -0.0317071 68.52441715 -0.02827603 73.31643677 -0.02049637 C75.6193954 -0.01849147 77.92236233 -0.02096375 80.22531128 -0.02793503 C83.44087959 -0.03553212 86.65581673 -0.02396932 89.87133789 -0.00723267 C90.82831573 -0.01330536 91.78529358 -0.01937805 92.77127075 -0.02563477 C93.64613129 -0.01717529 94.52099182 -0.00871582 95.42236328 0 C96.56276817 0.00169662 96.56276817 0.00169662 97.72621155 0.00342751 C100.31114574 0.49505869 101.18171994 1.25653659 102.71118164 3.38095093 C103.08870506 5.36592102 103.08870506 5.36592102 103.09213257 7.66976929 C103.10059204 8.54462982 103.10905151 9.41949036 103.11776733 10.32086182 C103.11169464 11.27783966 103.10562195 12.2348175 103.09936523 13.22079468 C103.10462219 14.23078522 103.10987915 15.24077576 103.11529541 16.28137207 C103.12852287 19.62722132 103.1197474 22.97259665 103.10961914 26.31845093 C103.11163908 28.63868298 103.11454985 30.95891441 103.11831665 33.27914429 C103.12274374 38.14484698 103.11629645 43.01038459 103.10229492 47.87606812 C103.085203 54.12092732 103.0950421 60.36539975 103.11301231 66.61024475 C103.12383967 71.40226163 103.1204086 76.19418644 103.11262894 80.98620605 C103.11062404 83.28916469 103.11309632 85.59213161 103.1200676 87.89508057 C103.12766468 91.11064888 103.11610189 94.32558602 103.09936523 97.54110718 C103.10543793 98.49808502 103.11151062 99.45506287 103.11776733 100.44104004 C103.10930786 101.31590057 103.10084839 102.19076111 103.09213257 103.09213257 C103.09100149 103.8524025 103.08987041 104.61267242 103.08870506 105.39598083 C102.59707388 107.98091503 101.83559598 108.85148922 99.71118164 110.38095093 C97.72621155 110.75847435 97.72621155 110.75847435 95.42236328 110.76190186 C94.54750275 110.77036133 93.67264221 110.7788208 92.77127075 110.78753662 C91.81429291 110.78146393 90.85731506 110.77539124 89.87133789 110.76913452 C88.35635208 110.77701996 88.35635208 110.77701996 86.8107605 110.7850647 C83.46491124 110.79829216 80.11953592 110.78951669 76.77368164 110.77938843 C74.45344959 110.78140837 72.13321815 110.78431913 69.81298828 110.78808594 C64.94728559 110.79251302 60.08174798 110.78606573 55.21606445 110.77206421 C48.97120525 110.75497229 42.72673282 110.76481139 36.48188782 110.7827816 C31.68987093 110.79360896 26.89794613 110.79017788 22.10592651 110.78239822 C19.80296788 110.78039332 17.50000096 110.78286561 15.197052 110.78983688 C11.98148369 110.79743397 8.76654655 110.78587117 5.55102539 110.76913452 C4.59404755 110.77520721 3.6370697 110.78127991 2.65109253 110.78753662 C1.33880173 110.77484741 1.33880173 110.77484741 0 110.76190186 C-1.14040489 110.76020524 -1.14040489 110.76020524 -2.30384827 110.75847435 C-4.88878246 110.26684316 -5.75935666 109.50536526 -7.28881836 107.38095093 C-7.66634178 105.39598083 -7.66634178 105.39598083 -7.66976929 103.09213257 C-7.67822876 102.21727203 -7.68668823 101.3424115 -7.69540405 100.44104004 C-7.68933136 99.48406219 -7.68325867 98.52708435 -7.67700195 97.54110718 C-7.68225891 96.53111664 -7.68751587 95.5211261 -7.69293213 94.48052979 C-7.70615959 91.13468053 -7.69738412 87.78930521 -7.68725586 84.44345093 C-7.6892758 82.12321888 -7.69218657 79.80298744 -7.69595337 77.48275757 C-7.70038045 72.61705488 -7.69393317 67.75151726 -7.67993164 62.88583374 C-7.66283972 56.64097454 -7.67267882 50.39650211 -7.69064903 44.1516571 C-7.70147639 39.35964022 -7.69804531 34.56771542 -7.69026566 29.7756958 C-7.68826075 27.47273717 -7.69073304 25.16977024 -7.69770432 22.86682129 C-7.7053014 19.65125298 -7.6937386 16.43631584 -7.67700195 13.22079468 C-7.68307465 12.26381683 -7.68914734 11.30683899 -7.69540405 10.32086182 C-7.68271484 9.00857101 -7.68271484 9.00857101 -7.66976929 7.66976929 C-7.66863821 6.90949936 -7.66750713 6.14922943 -7.66634178 5.36592102 C-6.83000505 0.96856897 -4.14037997 0.00615977 0 0 Z " fill="#424242" transform="translate(16.288818359375,8.619049072265625)"/>
<path d="M0 0 C1.3122908 -0.01268921 1.3122908 -0.01268921 2.65109253 -0.02563477 C4.0865593 -0.01652573 4.0865593 -0.01652573 5.55102539 -0.00723267 C7.0660112 -0.0151181 7.0660112 -0.0151181 8.61160278 -0.02316284 C11.95745204 -0.0363903 15.30282736 -0.02761483 18.64868164 -0.01748657 C20.96891369 -0.01950651 23.28914513 -0.02241728 25.609375 -0.02618408 C30.47507769 -0.03061117 35.3406153 -0.02416388 40.20629883 -0.01016235 C46.45115803 0.00692957 52.69563046 -0.00290953 58.94047546 -0.02087975 C63.73249235 -0.0317071 68.52441715 -0.02827603 73.31643677 -0.02049637 C75.6193954 -0.01849147 77.92236233 -0.02096375 80.22531128 -0.02793503 C83.44087959 -0.03553212 86.65581673 -0.02396932 89.87133789 -0.00723267 C90.82831573 -0.01330536 91.78529358 -0.01937805 92.77127075 -0.02563477 C93.64613129 -0.01717529 94.52099182 -0.00871582 95.42236328 0 C96.56276817 0.00169662 96.56276817 0.00169662 97.72621155 0.00342751 C100.2975729 0.49247726 101.17715347 1.28109204 102.71118164 3.38095093 C102.97268573 6.32085679 103.06012553 9.05000181 103.00415039 11.98641968 C103.00112915 12.73041016 102.99810791 13.47440063 102.99499512 14.24093628 C102.97931321 17.01691585 102.93742903 19.79269749 102.89868164 22.56845093 C102.83680664 28.77657593 102.77493164 34.98470093 102.71118164 41.38095093 C90.17118164 41.38095093 77.63118164 41.38095093 64.71118164 41.38095093 C64.71118164 36.76095093 64.71118164 32.14095093 64.71118164 27.38095093 C59.76118164 27.38095093 54.81118164 27.38095093 49.71118164 27.38095093 C49.71118164 32.00095093 49.71118164 36.62095093 49.71118164 41.38095093 C38.82118164 41.38095093 27.93118164 41.38095093 16.71118164 41.38095093 C16.71118164 36.76095093 16.71118164 32.14095093 16.71118164 27.38095093 C11.76118164 27.38095093 6.81118164 27.38095093 1.71118164 27.38095093 C1.71118164 32.00095093 1.71118164 36.62095093 1.71118164 41.38095093 C-1.25881836 41.38095093 -4.22881836 41.38095093 -7.28881836 41.38095093 C-7.36293886 36.02412959 -7.41740612 30.66760631 -7.45361328 25.31039429 C-7.46870596 23.48775026 -7.48918231 21.66514257 -7.51513672 19.84262085 C-7.55149938 17.22379593 -7.5685396 14.60545085 -7.58178711 11.98641968 C-7.59727097 11.17069992 -7.61275482 10.35498016 -7.62870789 9.51454163 C-7.63039595 3.8485204 -7.63039595 3.8485204 -6.0355835 1.66545677 C-3.85856694 0.0645601 -2.68607565 0.00399616 0 0 Z " fill="#AEAEAE" transform="translate(16.288818359375,8.619049072265625)"/>
</svg>
