<?xml version="1.0" encoding="UTF-8"?>
<svg version="1.1" xmlns="http://www.w3.org/2000/svg" width="128" height="128">
<path d="M0 0 C0.99863068 -0.00540298 1.99726135 -0.01080597 3.02615356 -0.01637268 C6.33487375 -0.02890349 9.64273111 -0.01233836 12.95141602 0.00561523 C15.24683172 0.00546034 17.5422477 0.00397288 19.83766174 0.00120544 C24.65214579 -0.00018055 29.46633265 0.01241229 34.28076172 0.03515625 C40.45603923 0.06352519 46.63082212 0.06081039 52.80613613 0.04806614 C57.54759453 0.04111462 62.28893838 0.04889254 67.03038216 0.06132317 C69.30738956 0.0658439 71.58440924 0.06616906 73.86141777 0.06225777 C77.04328529 0.0593512 80.22446883 0.07582725 83.40625 0.09765625 C84.35028183 0.0931546 85.29431366 0.08865295 86.26695251 0.08401489 C89.7168294 0.1233891 92.58933973 0.26093372 95.8518219 1.41870117 C98.30340438 5.02510239 97.82177287 8.98407463 97.78540039 13.23388672 C97.79240967 14.2325174 97.79941895 15.23114807 97.80664062 16.26004028 C97.82427883 19.56874207 97.81257593 22.8765919 97.79907227 26.18530273 C97.80176571 28.48071965 97.80564689 30.77613546 97.81066895 33.07154846 C97.81657209 37.88602545 97.8079753 42.70020588 97.78930664 47.51464844 C97.76652982 53.69001372 97.77962753 59.86468318 97.8035965 66.04002285 C97.81804317 70.78149162 97.81345337 75.52279516 97.80308533 80.26426888 C97.80041427 82.54128158 97.80370107 84.81830922 97.81300354 87.09530449 C97.82314873 90.27731994 97.80769489 93.45820553 97.78540039 96.64013672 C97.79349731 97.58416855 97.80159424 98.52820038 97.80993652 99.50083923 C97.76138292 103.23651848 97.66392571 105.78229524 95.84509277 109.08570862 C91.82513552 111.29434793 88.03061157 111.05848006 83.51391602 111.01928711 C82.52489288 111.02629639 81.53586975 111.03330566 80.51687622 111.04052734 C77.24607303 111.05813939 73.97613433 111.04647278 70.70532227 111.03295898 C68.43375482 111.03565296 66.16218849 111.0395346 63.890625 111.04455566 C59.1292015 111.05045508 54.36807809 111.04187318 49.60668945 111.02319336 C43.49973159 111.00040393 37.39347686 111.01352458 31.2865448 111.03748322 C26.5956898 111.05192899 21.90500184 111.04734073 17.21414185 111.03697205 C14.96224891 111.0343014 12.71034087 111.03758634 10.45846558 111.04689026 C7.31247721 111.05703541 4.16763164 111.04158235 1.02172852 111.01928711 C-0.37793655 111.0314325 -0.37793655 111.0314325 -1.80587769 111.04382324 C-5.51805172 110.9950207 -8.02913589 110.88965956 -11.31044006 109.07897949 C-13.5279883 105.05909467 -13.28071652 101.26761065 -13.23388672 96.74780273 C-13.2392897 95.7587796 -13.24469269 94.76975647 -13.2502594 93.75076294 C-13.26277162 90.479941 -13.24623855 87.20999497 -13.22827148 83.93920898 C-13.22842641 81.66764276 -13.22991438 79.39607626 -13.23268127 77.12451172 C-13.23406639 72.36308105 -13.22148802 67.60195118 -13.19873047 62.84057617 C-13.17034583 56.73370697 -13.17308182 50.62733772 -13.18582058 44.52043152 C-13.19277166 39.82958701 -13.18499494 35.13885829 -13.17256355 30.44802856 C-13.16804352 28.19614099 -13.16771705 25.94424101 -13.17162895 23.69235229 C-13.17453551 20.54651355 -13.15806017 17.40136662 -13.13623047 14.25561523 C-13.14073212 13.32250519 -13.14523376 12.38939514 -13.14987183 11.42800903 C-13.11033194 8.00297472 -12.96692272 5.16173004 -11.81518555 1.92344666 C-8.21056118 -0.53685629 -4.2518792 -0.04345095 0 0 Z " fill="#424242" transform="translate(21.732177734375,8.498291015625)"/>
<path d="M0 0 C0.99863068 -0.00540298 1.99726135 -0.01080597 3.02615356 -0.01637268 C6.33487375 -0.02890349 9.64273111 -0.01233836 12.95141602 0.00561523 C15.24683172 0.00546034 17.5422477 0.00397288 19.83766174 0.00120544 C24.65214579 -0.00018055 29.46633265 0.01241229 34.28076172 0.03515625 C40.45603923 0.06352519 46.63082212 0.06081039 52.80613613 0.04806614 C57.54759453 0.04111462 62.28893838 0.04889254 67.03038216 0.06132317 C69.30738956 0.0658439 71.58440924 0.06616906 73.86141777 0.06225777 C77.04328529 0.0593512 80.22446883 0.07582725 83.40625 0.09765625 C84.35028183 0.0931546 85.29431366 0.08865295 86.26695251 0.08401489 C92.5720369 0.15597621 92.5720369 0.15597621 95.85578918 1.78765869 C98.31629183 4.77443381 97.75211606 8.42182691 97.65844727 12.10717773 C97.65441895 12.85116821 97.65039062 13.59515869 97.64624023 14.36169434 C97.6253302 17.13778384 97.56948423 19.91352147 97.51782227 22.68920898 C97.43532227 28.89733398 97.35282227 35.10545898 97.26782227 41.50170898 C84.72782227 41.50170898 72.18782227 41.50170898 59.26782227 41.50170898 C59.26782227 36.88170898 59.26782227 32.26170898 59.26782227 27.50170898 C54.31782227 27.50170898 49.36782227 27.50170898 44.26782227 27.50170898 C44.26782227 32.12170898 44.26782227 36.74170898 44.26782227 41.50170898 C33.04782227 41.50170898 21.82782227 41.50170898 10.26782227 41.50170898 C10.26782227 36.88170898 10.26782227 32.26170898 10.26782227 27.50170898 C5.64782227 27.50170898 1.02782227 27.50170898 -3.73217773 27.50170898 C-3.73217773 32.12170898 -3.73217773 36.74170898 -3.73217773 41.50170898 C-6.70217773 41.50170898 -9.67217773 41.50170898 -12.73217773 41.50170898 C-12.80639678 36.30561441 -12.8608122 31.10982916 -12.89697266 25.91333008 C-12.91204875 24.14602279 -12.93251295 22.37875285 -12.95849609 20.61157227 C-12.99493176 18.06964903 -13.01191567 15.52822092 -13.02514648 12.98608398 C-13.04063034 12.19739929 -13.0561142 11.4087146 -13.07206726 10.59613037 C-13.07297651 7.62487153 -12.96186954 5.05750896 -11.81915283 2.29240417 C-8.34247613 -0.69070198 -4.4273621 -0.04524425 0 0 Z " fill="#718A6D" transform="translate(21.732177734375,8.498291015625)"/>
</svg>
